<?xml version="1.0" encoding="UTF-8"?>
<svg version="1.1" xmlns="http://www.w3.org/2000/svg" width="512" height="512">
<path d="M0 0 C42.45791783 40.07044173 68.00439206 97.49457446 70.17260742 155.77197266 C71.35653753 215.98755698 52.71515826 273.68140391 12.0625 318.8125 C11.58071289 319.35455078 11.09892578 319.89660156 10.60253906 320.45507812 C0.14559624 332.19787794 -11.17939951 342.58647506 -23.9375 351.8125 C-24.57478027 352.27382324 -25.21206055 352.73514648 -25.86865234 353.21044922 C-58.31533823 376.39338254 -95.42405598 390.17038699 -134.9375 394.8125 C-136.02160156 394.94398438 -137.10570312 395.07546875 -138.22265625 395.2109375 C-170.03577343 398.31261164 -203.84035159 394.63159484 -233.9375 383.8125 C-235.07687012 383.42118896 -235.07687012 383.42118896 -236.23925781 383.02197266 C-264.80074798 373.18160239 -290.50717821 358.01702161 -312.9375 337.8125 C-313.47955078 337.33071289 -314.02160156 336.84892578 -314.58007812 336.35253906 C-359.73882995 296.13874905 -386.0839027 238.95326568 -389.9375 178.8125 C-392.65978676 114.69922417 -370.66760621 55.04982598 -327.54882812 7.81420898 C-290.2705378 -32.3732856 -239.16836364 -56.81635712 -184.9375 -63.1875 C-183.85339844 -63.31898437 -182.76929688 -63.45046875 -181.65234375 -63.5859375 C-114.19467323 -70.16283818 -49.19528688 -45.63400148 0 0 Z " fill="#4294FF" transform="translate(415.9375,90.1875)"/>
<path d="M0 0 C2.10288709 -0.0043538 4.20363862 -0.04065465 6.30615234 -0.07861328 C14.70647665 -0.15009029 22.34321565 0.12212445 28.73876953 6.12109375 C33.24253729 10.95655603 35.11579691 15.49523501 35.14671326 22.14360046 C35.15668839 23.29717545 35.16666351 24.45075043 35.17694092 25.63928223 C35.17760559 26.89599731 35.17827026 28.1527124 35.17895508 29.44750977 C35.18658128 30.79161538 35.19500958 32.13571664 35.20417786 33.47981262 C35.22608903 37.12470832 35.2349176 40.76952013 35.2400043 44.41447425 C35.243653 46.69523401 35.24989583 48.97597197 35.25700569 51.2567234 C35.28149202 59.22397446 35.29454954 67.19116052 35.2980957 75.15844727 C35.30172657 82.56744296 35.33159146 89.9760233 35.37350029 97.38489217 C35.40828157 103.75878387 35.42364552 110.1325385 35.42434174 116.50652438 C35.42513213 120.30755476 35.43375973 124.10816212 35.4623394 127.90909386 C35.48865411 131.48883349 35.49065197 135.06780355 35.47468376 138.64759636 C35.47202533 140.57320906 35.49396331 142.49880768 35.51687622 144.42428589 C35.45295997 152.0682932 34.35643284 158.03699951 29.87255859 164.37060547 C22.54266853 171.25659093 14.97025715 171.76919271 5.22729492 171.79614258 C3.20740023 171.8079746 1.19063187 171.8571412 -0.82861328 171.90771484 C-9.01271995 171.95239235 -15.37942258 171.26066117 -22.12744141 166.37060547 C-24.38134766 164.01904297 -24.38134766 164.01904297 -25.68994141 161.74560547 C-26.14498047 160.99021484 -26.60001953 160.23482422 -27.06884766 159.45654297 C-28.93771223 155.77398325 -29.2572838 152.89784273 -29.27461243 148.82466125 C-29.28176773 147.67094528 -29.28892303 146.51722931 -29.29629517 145.32855225 C-29.29898407 144.06150452 -29.30167297 142.79445679 -29.30444336 141.48901367 C-29.31070952 140.14196091 -29.31735646 138.79490987 -29.32435608 137.44786072 C-29.34538416 133.0223816 -29.35575863 128.59690219 -29.36572266 124.17138672 C-29.36977095 122.64637929 -29.3738879 121.12137204 -29.37807274 119.59636497 C-29.39712321 112.42987346 -29.41135343 105.26339222 -29.41968471 98.09688026 C-29.42945108 89.8329053 -29.45575533 81.56919863 -29.4961856 73.30531818 C-29.52638341 66.91282659 -29.54115712 60.52041174 -29.54446572 54.12785023 C-29.54681243 50.31237486 -29.55572272 46.49718614 -29.5809269 42.68178749 C-29.60427654 39.08904778 -29.60841359 35.49678202 -29.59816551 31.90398598 C-29.59743724 29.96604976 -29.61648088 28.02813724 -29.63623047 26.09030151 C-29.58885648 18.12291655 -28.73838354 12.55509769 -23.38134766 6.34716797 C-22.82318359 5.90115234 -22.26501953 5.45513672 -21.68994141 4.99560547 C-21.13435547 4.53412109 -20.57876953 4.07263672 -20.00634766 3.59716797 C-13.76652092 -0.47623244 -7.17079468 -0.00166106 0 0 Z " fill="#EDF2FF" transform="translate(253.12744140625,223.62939453125)"/>
<path d="M0 0 C7.33590199 4.77843157 11.62856456 11.65837182 14 20 C15.32339593 30.72647224 12.87791124 40.16037827 6.4375 48.875 C1.39325043 54.26257545 -7.47221888 58.61745894 -14.8203125 59.23828125 C-22.21377368 59.40432825 -27.64458785 58.86641044 -34 55 C-35.04800781 54.38125 -35.04800781 54.38125 -36.1171875 53.75 C-43.49878749 48.8475034 -47.64893302 41.43178111 -50 33 C-50.88055277 24.83952844 -50.30216839 18.0496591 -46 11 C-45.57589844 10.30132812 -45.15179688 9.60265625 -44.71484375 8.8828125 C-34.17648681 -6.6752075 -15.80622083 -8.79670733 0 0 Z " fill="#ECF2FF" transform="translate(274,133)"/>
</svg>
